<svg width="16" height="16" viewBox="0 0 16 16" fill="none" xmlns="http://www.w3.org/2000/svg">
<path fill-rule="evenodd" clip-rule="evenodd" d="M5.11313 1.33301H10.8931C13.1531 1.33301 14.6665 2.91967 14.6665 5.27967V10.727C14.6665 13.0803 13.1531 14.6663 10.8931 14.6663H5.11313C2.85313 14.6663 1.33313 13.0803 1.33313 10.727V5.27967C1.33313 2.91967 2.85313 1.33301 5.11313 1.33301ZM10.0065 9.99967C10.2331 9.77367 10.2331 9.407 10.0065 9.18033L8.81979 7.99367L10.0065 6.80633C10.2331 6.58033 10.2331 6.207 10.0065 5.98033C9.77979 5.753 9.41313 5.753 9.17979 5.98033L7.99979 7.16633L6.81313 5.98033C6.57979 5.753 6.21313 5.753 5.98646 5.98033C5.75979 6.207 5.75979 6.58033 5.98646 6.80633L7.17313 7.99367L5.98646 9.17367C5.75979 9.407 5.75979 9.77367 5.98646 9.99967C6.09979 10.113 6.25313 10.1737 6.39979 10.1737C6.55313 10.1737 6.69979 10.113 6.81313 9.99967L7.99979 8.82033L9.18646 9.99967C9.29979 10.1203 9.44646 10.1737 9.59313 10.1737C9.74646 10.1737 9.89313 10.113 10.0065 9.99967Z" fill="#BEC4D0"/>
</svg>
